<svg xmlns="http://www.w3.org/2000/svg" viewBox="0 0 100 100"><rect width="100" height="100" rx="22" fill="#060a05"/><path d="M8,50 Q14,26 20,50 Q26,74 32,50 Q38,26 44,50 Q50,74 56,50 Q62,26 68,50 Q74,74 80,50 Q86,26 92,50" stroke="rgba(80,220,80,.35)" stroke-width="1.5" fill="none"/><rect x="8" y="62" width="84" height="2.5" rx="1" fill="rgba(80,220,80,.12)"/><rect x="42" y="60" width="4" height="7" rx="2" fill="rgba(100,255,100,.9)"/><path d="M8,50 Q14,26 20,50 Q26,74 32,50" stroke="#55ee55" stroke-width="2" fill="none" stroke-linecap="round"/><path d="M32,50 Q38,38 44,50 Q50,62 56,50" stroke="rgba(80,220,80,.6)" stroke-width="2" fill="none" stroke-linecap="round"/><path d="M56,50 Q62,30 68,50 Q74,70 80,50 Q86,36 92,50" stroke="rgba(80,220,80,.3)" stroke-width="2" fill="none" stroke-linecap="round"/></svg>
